<svg width="59" height="76" viewBox="0 0 59 76" fill="none" xmlns="http://www.w3.org/2000/svg">
<path d="M55.884 60.4877C57.0881 60.5914 58.1625 59.7076 58.1779 58.4991C58.2164 55.4671 57.705 52.4452 56.6595 49.5615C55.364 45.9882 53.2772 42.7063 50.5334 39.927C47.7896 37.1477 44.4497 34.9325 40.7284 33.424C37.0071 31.9156 32.9869 31.1472 28.9266 31.1684C24.8662 31.1895 20.8556 31.9998 17.1528 33.547C13.45 35.0942 10.137 37.344 7.42707 40.1518C4.71709 42.9595 2.67013 46.263 1.41791 49.8496C0.406917 52.7453 -0.0679623 55.7737 0.00782495 58.8066C0.0379754 60.0132 1.12059 60.8834 2.32195 60.7673V60.7673C3.54954 60.6487 4.43034 59.5465 4.42262 58.3132C4.40735 55.8747 4.81151 53.4447 5.62456 51.116C6.68642 48.0746 8.4222 45.2733 10.7202 42.8924C13.0182 40.5115 15.8276 38.6036 18.9675 37.2917C22.1074 35.9797 25.5083 35.2926 28.9514 35.2746C32.3945 35.2567 35.8035 35.9082 38.9591 37.1874C42.1147 38.4666 44.9469 40.345 47.2736 42.7018C49.6003 45.0586 51.3698 47.8416 52.4684 50.8717C53.3099 53.1928 53.7435 55.6195 53.7574 58.059C53.7644 59.2911 54.6564 60.382 55.884 60.4877V60.4877Z" fill="#998352"/>
<circle cx="29.0899" cy="16.6228" r="14.1228" stroke="#998352" stroke-width="5"/>
</svg>
