<svg width="100" height="100" viewBox="0 0 100 100" fill="none" xmlns="http://www.w3.org/2000/svg">
<path fill-rule="evenodd" clip-rule="evenodd" d="M3.57664 0.169377C2.27327 0.587149 1.12446 1.53001 0.55926 2.64591C-0.0431927 3.83523 -0.00020455 0.191907 0.00112605 49.9926C0.00214958 87.823 0.0258969 95.7529 0.139407 96.1769C0.589148 97.857 1.82507 99.1749 3.47992 99.7388L4.14521 99.9655L49.3855 99.9939C79.5801 100.013 94.9137 99.9877 95.4918 99.9181C97.8087 99.6397 99.5982 97.8893 99.8934 95.6126C99.9912 94.8593 100.045 84.43 99.9516 84.3366C99.9254 84.3104 99.3841 84.3945 98.7489 84.5235C94.375 85.4117 89.1925 86.0979 83.7762 86.5057C81.4316 86.6822 73.93 86.7455 71.1867 86.6118C56.8802 85.9146 43.5554 82.7915 30.4795 77.0708C27.8474 75.9192 23.8144 73.9208 23.6202 73.6719C23.3974 73.3862 23.3914 72.9186 23.604 72.4081C23.8551 71.8054 26.004 67.7352 26.1755 67.5377C26.5322 67.1267 26.7949 67.1925 28.9271 68.2269C35.1983 71.2691 40.5634 73.3661 46.4641 75.0814C53.7522 77.2002 60.2345 78.3825 68.4744 79.0956C71.1403 79.3264 81.0578 79.36 83.6739 79.1471C87.9812 78.7966 91.4312 78.3668 94.9308 77.7447C97.0762 77.3634 99.7535 76.8105 99.9033 76.7178C99.9626 76.6812 99.9993 66.8196 99.9993 50.9247C99.9993 30.4608 99.9731 25.1698 99.8713 25.0881C99.801 25.0315 99.0525 24.7307 98.2081 24.4197C92.2775 22.2352 86.335 20.9763 79.938 20.549C77.6853 20.3986 71.9896 20.4869 69.805 20.7061C56.5031 22.041 44.3268 27.2151 34.2371 35.8202C32.4474 37.3466 28.291 41.5575 26.7729 43.3824C23.0979 47.8001 19.9818 52.6688 17.8537 57.3179C17.48 58.1345 17.0878 58.8926 16.9823 59.0023C16.8687 59.1206 16.6538 59.202 16.4555 59.2019C16.0236 59.2018 10.9849 57.0481 10.6579 56.7238C10.2657 56.3351 10.3929 55.8745 11.5513 53.4868C15.2456 45.8723 19.8056 39.5142 25.8088 33.6073C37.6414 21.9643 52.8683 14.9076 69.5491 13.3365C73.3298 12.9804 79.2364 13.0286 83.3156 13.4489C88.3206 13.9646 93.7605 15.1383 98.4597 16.7163C99.2173 16.9708 99.8764 17.179 99.9243 17.179C99.9723 17.179 99.9955 14.2184 99.9759 10.6001C99.9408 4.10064 99.9376 4.01381 99.7135 3.415C99.1377 1.87702 98.089 0.796651 96.6388 0.247403L96.0586 0.0277645L50.1019 0.00738729C6.2885 -0.0119654 4.11871 -0.0043881 3.57664 0.169377ZM76.0838 28.305C76.1625 29.9448 76.154 32.2541 76.0625 34.1254L75.9974 35.4565L74.7691 35.521C70.1567 35.7631 66.1786 37.8919 63.4404 41.5832C59.1632 47.3493 59.6652 55.4809 64.6183 60.6641C66.8984 63.0502 69.7618 64.5849 73.005 65.1591C74.2705 65.3833 76.6168 65.3844 77.8909 65.1615C84.0523 64.0838 88.7621 59.5412 90.0904 53.395C90.3923 51.9981 90.4195 49.033 90.1428 47.6651C89.5656 44.8109 88.2287 42.2184 86.2853 40.1847L85.385 39.2426L86.2183 38.2884C87.571 36.7391 91.239 32.9423 91.3545 32.9718C91.413 32.9869 91.8452 33.4137 92.3148 33.9206C95.8681 37.7558 97.8103 41.5805 98.6846 46.464C98.9535 47.9657 99.0515 51.0951 98.8806 52.7283C98.4186 57.1458 96.5985 61.5697 93.8116 65.0488C90.0574 69.7355 84.6049 72.764 78.4027 73.6075C77.0745 73.788 73.6474 73.7607 72.3531 73.559C70.9281 73.3371 69.0925 72.8827 67.7579 72.4215C66.2935 71.9154 63.8391 70.6979 62.5379 69.8321C57.7989 66.6786 54.2827 61.682 52.865 56.0872C52.2937 53.8329 52.1771 52.6841 52.2314 49.8431C52.2848 47.0389 52.4373 45.9451 53.0705 43.8238C55.6707 35.1119 62.6387 28.8646 71.5408 27.2641C73.2627 26.9545 73.3734 26.943 74.83 26.9229L76.0168 26.9065L76.0838 28.305Z" fill="#998352"/>
</svg>
