<svg width="291" height="40" viewBox="0 0 291 40" fill="none" xmlns="http://www.w3.org/2000/svg">
<path d="M43.2297 34.0426C43.2297 34.4885 43.5384 34.7973 43.9844 34.7973H45.7682C46.2484 34.7973 46.5571 34.4885 46.5571 34.0426V26.2557C47.7235 28.0052 49.6101 29.1715 51.8056 29.1715C56.0592 29.1715 59.2837 25.7412 59.2837 21.2817C59.2837 16.8566 56.0592 13.392 51.8056 13.392C49.6444 13.392 47.7235 14.5583 46.5571 16.3078V13.9751C46.5571 13.735 46.3856 13.5635 46.1455 13.5635H43.9844C43.5384 13.5635 43.2297 13.8722 43.2297 14.3525V34.0426ZM51.2567 26.5988C48.581 26.5988 46.5571 24.2318 46.5571 21.2817C46.5571 17.7828 49.0956 15.9647 51.2567 15.9647C53.8295 15.9647 55.922 18.2973 55.922 21.2817C55.922 24.1975 53.8295 26.5988 51.2567 26.5988ZM60.9506 15.4845C60.9506 15.8618 61.1908 16.1019 61.5338 16.1019H62.9402V23.1341C62.9745 26.8046 65.3072 29 68.9776 29C69.3207 29 69.698 28.9657 70.041 28.8971C70.487 28.8285 70.7271 28.4511 70.5899 27.9709L70.1439 26.2557C70.0753 26.0156 69.8695 25.8784 69.6294 25.9127C69.5951 25.9127 69.5608 25.9127 69.5265 25.9127L69.252 25.947C67.5026 25.947 66.302 24.8493 66.302 23.0655V16.1019H69.8352C70.2811 16.1019 70.5899 15.7932 70.5899 15.3473V14.3525C70.5899 13.8722 70.2811 13.5635 69.8352 13.5635H66.302V10.2018C66.302 9.75581 65.9932 9.44708 65.5473 9.44708H63.7292C63.249 9.44708 62.9402 9.75581 62.9402 10.2018V13.5635H61.5338C61.1908 13.5635 60.9506 13.8036 60.9506 14.1809V15.4845ZM75.7659 10.682C77.0352 10.682 78.0986 9.75581 78.0986 8.6581C78.0986 7.5947 77.0009 6.6342 75.7659 6.6342C74.531 6.6342 73.4676 7.5947 73.4676 8.6581C73.4676 9.75581 74.531 10.682 75.7659 10.682ZM74.1194 14.3182V28.211C74.1194 28.6913 74.4281 29 74.874 29H76.6921C77.1381 29 77.4468 28.6913 77.4468 28.211V14.3182C77.4468 13.8722 77.1381 13.5635 76.6921 13.5635H74.874C74.4281 13.5635 74.1194 13.8722 74.1194 14.3182ZM88.5053 29.1715C91.5583 29.1715 94.1997 27.5936 95.5032 24.6778C95.7434 24.1632 95.4689 23.7516 94.8858 23.7516L93.2392 23.683C92.8962 23.6487 92.5874 23.8545 92.3816 24.1289C91.627 25.5697 90.2205 26.3929 88.6426 26.3929C85.8983 26.3929 84.0116 24.0946 84.0116 21.2817C84.0116 18.6404 85.7954 16.1362 88.6426 16.1362C90.0833 16.1362 91.5583 16.9252 92.3816 18.366C92.5874 18.6061 92.8962 18.8462 93.2392 18.8119L94.8858 18.7433C95.4689 18.709 95.7434 18.3317 95.5032 17.8171C94.1997 14.9356 91.5583 13.392 88.5053 13.392C84.3203 13.392 80.6842 16.6165 80.6842 21.2817C80.6842 25.8784 84.286 29.1715 88.5053 29.1715ZM106.278 8.82962L113.962 28.5198C114.099 28.7942 114.373 29 114.682 29H117.358C117.666 29 117.941 28.7942 118.078 28.5198L125.762 8.82962C126.036 8.17785 125.728 7.76621 125.042 7.76621H122.881C122.538 7.76621 122.263 7.97203 122.16 8.28076L116.02 24.7121L109.88 8.28076C109.777 7.97203 109.502 7.76621 109.159 7.76621H106.998C106.312 7.76621 106.003 8.17785 106.278 8.82962ZM130.336 10.682C131.606 10.682 132.669 9.75581 132.669 8.6581C132.669 7.5947 131.571 6.6342 130.336 6.6342C129.102 6.6342 128.038 7.5947 128.038 8.6581C128.038 9.75581 129.102 10.682 130.336 10.682ZM128.69 14.3182V28.211C128.69 28.6913 128.999 29 129.445 29H131.263C131.709 29 132.017 28.6913 132.017 28.211V14.3182C132.017 13.8722 131.709 13.5635 131.263 13.5635H129.445C128.999 13.5635 128.69 13.8722 128.69 14.3182ZM135.632 25.3295C136.147 27.4907 138.925 29.1715 142.321 29.1715C146.403 29.1715 149.113 26.9761 149.113 24.4377C149.113 22.0364 146.678 20.0468 142.321 20.0468C140.297 20.0468 139.028 19.1549 139.028 17.9543C139.028 16.7537 140.332 15.8961 142.321 15.8961C143.796 15.8961 145.065 16.6165 145.271 17.577C145.443 17.7485 145.649 17.9543 146.026 17.9543H148.324C148.805 17.9543 149.113 17.6456 149.01 17.1996C148.564 15.0728 145.992 13.392 142.321 13.392C138.548 13.392 135.529 15.4845 135.529 18.1258C135.529 20.3212 137.587 22.5167 142.321 22.5167C144.414 22.5167 145.614 23.3742 145.614 24.6092C145.614 25.7412 144.242 26.6674 142.321 26.6674C140.812 26.6674 139.543 25.9127 139.337 24.9522C139.2 24.7807 138.959 24.6092 138.616 24.6092H136.284C135.838 24.6092 135.495 24.9179 135.632 25.3295ZM154.255 10.682C155.524 10.682 156.588 9.75581 156.588 8.6581C156.588 7.5947 155.49 6.6342 154.255 6.6342C153.02 6.6342 151.957 7.5947 151.957 8.6581C151.957 9.75581 153.02 10.682 154.255 10.682ZM152.608 14.3182V28.211C152.608 28.6913 152.917 29 153.363 29H155.181C155.627 29 155.936 28.6913 155.936 28.211V14.3182C155.936 13.8722 155.627 13.5635 155.181 13.5635H153.363C152.917 13.5635 152.608 13.8722 152.608 14.3182ZM159.173 21.2817C159.173 25.6383 162.775 29.1715 167.269 29.1715C171.763 29.1715 175.399 25.604 175.399 21.2817C175.399 16.9252 171.763 13.392 167.269 13.392C162.775 13.392 159.173 16.9252 159.173 21.2817ZM162.501 21.2817C162.501 18.4346 164.627 16.1362 167.269 16.1362C169.807 16.1362 172.037 18.366 172.037 21.2817C172.037 24.0946 169.91 26.3929 167.269 26.3929C164.627 26.3929 162.501 24.0946 162.501 21.2817ZM178.569 28.2453C178.569 28.6913 178.878 29 179.324 29H181.142C181.588 29 181.896 28.6913 181.896 28.2453V20.0468C181.896 18.5375 183.303 16.1362 186.047 16.1362C188.105 16.1362 189.717 17.7485 189.717 19.841V28.211C189.717 28.6913 190.026 29 190.472 29H192.29C192.736 29 193.045 28.6913 193.045 28.211V20.0468C193.045 16.445 190.609 13.392 186.596 13.392C184.606 13.392 182.925 14.3182 181.896 15.656V13.9065C181.896 13.7007 181.759 13.5635 181.553 13.5635H179.324C178.878 13.5635 178.569 13.8722 178.569 14.3525V28.2453ZM204.326 8.76101L210.124 28.4511C210.227 28.7599 210.535 29 210.878 29H213.211C213.52 29 213.828 28.7942 213.931 28.4854L219.008 12.6373L223.948 28.4511C224.051 28.7942 224.36 29 224.703 29H227.001C227.344 29 227.618 28.7942 227.721 28.4511L233.69 8.76101C233.862 8.17785 233.553 7.76621 232.935 7.76621H230.877C230.534 7.76621 230.26 7.97203 230.157 8.31507L225.629 23.5801L220.998 8.31507C220.895 7.97203 220.62 7.76621 220.277 7.76621H217.911C217.567 7.76621 217.259 7.97203 217.156 8.28076L212.319 23.683L207.86 8.31507C207.757 8.00634 207.482 7.76621 207.105 7.76621H205.081C204.464 7.76621 204.155 8.14355 204.326 8.76101ZM233.609 21.2817C233.609 25.6383 237.211 29.1715 241.704 29.1715C246.198 29.1715 249.834 25.604 249.834 21.2817C249.834 16.9252 246.198 13.392 241.704 13.392C237.211 13.392 233.609 16.9252 233.609 21.2817ZM236.936 21.2817C236.936 18.4346 239.063 16.1362 241.704 16.1362C244.243 16.1362 246.473 18.366 246.473 21.2817C246.473 24.0946 244.346 26.3929 241.704 26.3929C239.063 26.3929 236.936 24.0946 236.936 21.2817ZM252.97 28.2453C252.97 28.6913 253.279 29 253.759 29H255.543C256.023 29 256.332 28.6913 256.332 28.2453V21.2817C256.332 18.709 258.424 16.6508 260.791 16.6851C261.272 16.7194 261.718 16.6508 261.958 16.1362L262.884 14.4554C262.987 14.1466 262.918 13.8036 262.644 13.7007C262.301 13.6321 261.923 13.5978 261.546 13.5978C259.659 13.5978 257.43 14.4554 256.332 16.3078V13.9751C256.332 13.735 256.16 13.5635 255.92 13.5635H253.759C253.279 13.5635 252.97 13.8722 252.97 14.3525V28.2453ZM266.691 29H268.509C268.955 29 269.263 28.6913 269.263 28.211V8.52089C269.263 8.07494 268.955 7.76621 268.509 7.76621H266.691C266.245 7.76621 265.936 8.07494 265.936 8.52089V28.211C265.936 28.6913 266.245 29 266.691 29ZM272.467 21.2817C272.467 25.7069 275.692 29.1715 279.945 29.1715C282.107 29.1715 284.028 28.0052 285.194 26.2557V28.5884C285.194 28.8285 285.365 29 285.606 29H287.767C288.247 29 288.556 28.6913 288.556 28.211V8.52089C288.556 8.04064 288.247 7.73191 287.767 7.73191H285.983C285.503 7.73191 285.194 8.04064 285.194 8.52089V16.3078C284.062 14.5583 282.141 13.392 279.945 13.392C275.692 13.392 272.467 16.8223 272.467 21.2817ZM275.829 21.2817C275.829 18.366 277.922 15.9647 280.494 15.9647C283.17 15.9647 285.194 18.3317 285.194 21.2817C285.194 24.7807 282.69 26.5988 280.494 26.5988C277.922 26.5988 275.829 24.2661 275.829 21.2817Z" fill="#998352"/>
<path fill-rule="evenodd" clip-rule="evenodd" d="M1.43066 0.067723C0.909309 0.234764 0.449782 0.611753 0.223704 1.05793C-0.0172771 1.53347 -8.182e-05 0.0767314 0.000450418 19.9889C0.000859832 35.1149 0.0103588 38.2855 0.0557628 38.4551C0.235659 39.1268 0.730026 39.6538 1.39197 39.8793L1.65809 39.9699L19.7542 39.9812C31.8321 39.9888 37.9655 39.9787 38.1967 39.9509C39.1235 39.8396 39.8393 39.1397 39.9574 38.2294C39.9965 37.9282 40.018 33.7582 39.9806 33.7209C39.9701 33.7104 39.7536 33.744 39.4996 33.7956C37.75 34.1507 35.677 34.4251 33.5105 34.5882C32.5726 34.6587 29.572 34.684 28.4747 34.6306C22.7521 34.3518 17.4222 33.1031 12.1918 30.8157C11.139 30.3553 9.52575 29.5563 9.44809 29.4567C9.35896 29.3425 9.35654 29.1555 9.44162 28.9514C9.54205 28.7104 10.4016 27.083 10.4702 27.0041C10.6129 26.8397 10.718 26.866 11.5709 27.2796C14.0793 28.496 16.2254 29.3345 18.5856 30.0203C21.5009 30.8675 24.0938 31.3402 27.3898 31.6254C28.4561 31.7176 32.4231 31.7311 33.4696 31.6459C35.1925 31.5058 36.5725 31.3339 37.9723 31.0852C38.8305 30.9327 39.9014 30.7117 39.9613 30.6746C39.985 30.66 39.9997 26.7169 39.9997 20.3616C39.9997 12.1793 39.9892 10.0638 39.9485 10.0311C39.9204 10.0085 39.621 9.88825 39.2832 9.76391C36.911 8.89047 34.534 8.3871 31.9752 8.21625C31.0741 8.15611 28.7958 8.1914 27.922 8.27905C22.6012 8.81281 17.7307 10.8816 13.6949 14.3222C12.979 14.9326 11.3164 16.6162 10.7092 17.3459C9.23916 19.1122 7.9927 21.0589 7.14149 22.9178C6.99201 23.2443 6.83513 23.5474 6.79291 23.5913C6.74747 23.6386 6.66153 23.6711 6.58219 23.6711C6.40946 23.6711 4.39395 22.8099 4.26315 22.6803C4.1063 22.5249 4.15715 22.3407 4.62052 21.386C6.09822 18.3414 7.92224 15.7992 10.3235 13.4374C15.0566 8.78214 21.1473 5.96062 27.8196 5.33242C29.3319 5.19002 31.6946 5.20931 33.3263 5.37737C35.3282 5.58355 37.5042 6.05286 39.3839 6.68381C39.6869 6.78555 39.9506 6.86878 39.9697 6.86878C39.9889 6.86878 39.9982 5.68505 39.9904 4.2383C39.9763 1.63959 39.9751 1.60487 39.8854 1.36544C39.6551 0.750503 39.2356 0.31853 38.6555 0.0989207L38.4235 0.0111013L20.0408 0.00295371C2.5154 -0.00478421 1.64748 -0.00175453 1.43066 0.067723ZM30.4335 11.3174C30.465 11.973 30.4616 12.8964 30.425 13.6446L30.3989 14.1768L29.9076 14.2026C28.0627 14.2994 26.4714 15.1506 25.3762 16.6265C23.6653 18.932 23.8661 22.1833 25.8473 24.2557C26.7594 25.2098 27.9047 25.8234 29.202 26.053C29.7082 26.1426 30.6467 26.1431 31.1564 26.054C33.6209 25.6231 35.5048 23.8068 36.0362 21.3493C36.1569 20.7907 36.1678 19.6052 36.0571 19.0583C35.8263 17.9171 35.2915 16.8805 34.5141 16.0673L34.154 15.6906L34.4873 15.3091C35.0284 14.6897 36.4956 13.1715 36.5418 13.1833C36.5652 13.1894 36.7381 13.36 36.9259 13.5627C38.3472 15.0962 39.1241 16.6254 39.4739 18.578C39.5814 19.1785 39.6206 20.4297 39.5523 21.0827C39.3674 22.849 38.6394 24.6178 37.5246 26.0089C36.0229 27.8828 33.842 29.0937 31.3611 29.431C30.8298 29.5032 29.459 29.4922 28.9412 29.4116C28.3712 29.3229 27.637 29.1412 27.1032 28.9568C26.5174 28.7544 25.5356 28.2676 25.0152 27.9214C23.1196 26.6606 21.7131 24.6627 21.146 22.4257C20.9175 21.5244 20.8709 21.0651 20.8926 19.9291C20.9139 18.8079 20.9749 18.3705 21.2282 17.5224C22.2683 14.039 25.0555 11.5411 28.6163 10.9012C29.3051 10.7774 29.3494 10.7728 29.932 10.7648L30.4067 10.7582L30.4335 11.3174Z" fill="#998352"/>
</svg>
