<svg width="69" height="54" viewBox="0 0 69 54" fill="none" xmlns="http://www.w3.org/2000/svg">
<path d="M24 7.16327H66" stroke="#998352" stroke-width="5" stroke-linecap="square"/>
<path d="M24 27.9796H66" stroke="#998352" stroke-width="5" stroke-linecap="square"/>
<path d="M24 47.7551H66" stroke="#998352" stroke-width="5" stroke-linecap="square"/>
<path d="M3 6.12245L6.5 9.76531L13 3" stroke="#998352" stroke-width="4" stroke-linecap="square"/>
<path d="M3 26.9388L6.5 30.5817L13 23.8163" stroke="#998352" stroke-width="4" stroke-linecap="square"/>
<mask id="path-6-inside-1_206_50" fill="white">
<path d="M14 47.2347C14 50.971 11.0899 54 7.5 54C3.91015 54 1 50.971 1 47.2347C1 43.4983 3.91015 40.4694 7.5 40.4694C11.0899 40.4694 14 43.4983 14 47.2347ZM4.54435 47.2347C4.54435 48.9337 5.86764 50.311 7.5 50.311C9.13236 50.311 10.4557 48.9337 10.4557 47.2347C10.4557 45.5357 9.13236 44.1584 7.5 44.1584C5.86764 44.1584 4.54435 45.5357 4.54435 47.2347Z"/>
</mask>
<path d="M14 47.2347C14 50.971 11.0899 54 7.5 54C3.91015 54 1 50.971 1 47.2347C1 43.4983 3.91015 40.4694 7.5 40.4694C11.0899 40.4694 14 43.4983 14 47.2347ZM4.54435 47.2347C4.54435 48.9337 5.86764 50.311 7.5 50.311C9.13236 50.311 10.4557 48.9337 10.4557 47.2347C10.4557 45.5357 9.13236 44.1584 7.5 44.1584C5.86764 44.1584 4.54435 45.5357 4.54435 47.2347Z" stroke="#998352" stroke-width="11.5556" mask="url(#path-6-inside-1_206_50)"/>
</svg>
